# xmcd
# 
# Track frame offsets:
#     150
#     19025
#     43741
#     67793
#     87208
#     97518
#     119103
#     140270
#     166461
#     186296
#     209508
#     232014
# 
# Disc length: 3370
# 
# Revision: 1
# Processed by: cddbd v1.5.2PL0 Copyright (c) Steve Scherf et al.
# Submitted via: fre:ac v1.0.27
# 
DISCID=9f0d280c
DTITLE=The Marcus King Band - Soul Insight
DYEAR=2015
DGENRE=Blues
TTITLE0=Always
TTITLE1=Boone
TTITLE2=Fraudulent Waffle
TTITLE3=Honey
TTITLE4=Dave's Apparition (Interlude)
TTITLE5=Everything
TTITLE6=No Decency
TTITLE7=Dyin'
TTITLE8=Booty Stank
TTITLE9=Opie
TTITLE10=Keep Moving
TTITLE11=I Won't Be Here
EXTD=
EXTT0=
EXTT1=
EXTT2=
EXTT3=
EXTT4=
EXTT5=
EXTT6=
EXTT7=
EXTT8=
EXTT9=
EXTT10=
EXTT11=
PLAYORDER=
